Coordinates
version=1
nRows=9
nColumns=63
inDegrees=yes

Units are S.I. units (second, meters, Newtons, ...)
If the header above contains a line with 'inDegrees', this indicates whether rotational values are in degrees (yes) or radians (no).

endheader
time	pelvis_tilt	pelvis_list	pelvis_rotation	pelvis_tx	pelvis_ty	pelvis_tz	hip_flexion_r	hip_adduction_r	hip_rotation_r	knee_angle_r	knee_angle_r_beta	ankle_angle_r	subtalar_angle_r	mtp_angle_r	hip_flexion_l	hip_adduction_l	hip_rotation_l	knee_angle_l	knee_angle_l_beta	ankle_angle_l	subtalar_angle_l	mtp_angle_l	L5_S1_Flex_Ext	L5_S1_Lat_Bending	L5_S1_axial_rotation	L4_L5_Flex_Ext	L4_L5_Lat_Bending	L4_L5_axial_rotation	L3_L4_Flex_Ext	L3_L4_Lat_Bending	L3_L4_axial_rotation	L2_L3_Flex_Ext	L2_L3_Lat_Bending	L2_L3_axial_rotation	L1_L2_Flex_Ext	L1_L2_Lat_Bending	L1_L2_axial_rotation	L1_T12_Flex_Ext	L1_T12_Lat_Bending	L1_T12_axial_rotation	Abs_r3	Abs_r2	Abs_r1	Abs_t1	Abs_t2	neck_flexion	neck_bending	neck_rotation	arm_flex_r	arm_add_r	arm_rot_r	elbow_flex_r	pro_sup_r	wrist_flex_r	wrist_dev_r	arm_flex_l	arm_add_l	arm_rot_l	elbow_flex_l	pro_sup_l	wrist_flex_l	wrist_dev_l
8.163636	7.309901	-29.517114	103.355977	0.078685	0.876239	0.047944	69.324726	0.687287	14.227397	85.862642	1.498586	36.023211	-18.062392	0.000000	65.292652	2.204659	-3.752806	74.326341	1.297239	54.495344	4.026066	0.000000	-0.529709	0.887113	-8.739009	-0.983723	1.179860	-9.285197	-0.870259	2.156927	-9.285197	-0.605404	2.156927	-7.646633	-0.491888	1.809001	-7.100445	-0.302676	1.374138	-6.554257	-3.783659	10.035200	-48.603747	0.000000	0.000000	2.998024	-15.304778	15.932500	10.502093	-27.432342	5.655650	87.361033	86.337745	6.721467	-5.788872	29.250295	16.415803	44.366069	56.325829	87.725037	-21.477217	-7.108883
8.181818	6.196948	-29.328962	101.877166	0.078607	0.875383	0.047712	69.337869	1.086930	15.552816	86.378727	1.507593	35.421027	-17.834089	0.000000	64.862045	1.704813	-5.436099	74.535111	1.300883	54.257600	4.049933	0.000000	-0.530999	0.786836	-8.684501	-0.986118	1.046492	-9.227282	-0.872378	1.913113	-9.227282	-0.606878	1.913113	-7.598938	-0.493085	1.604516	-7.056157	-0.303413	1.218809	-6.513376	-3.792871	8.900846	-48.300588	0.000000	0.000000	3.169379	-15.409660	16.324307	10.892938	-26.700022	5.264290	87.149444	86.465664	9.058613	-5.271004	29.089147	15.961918	44.037359	57.296878	87.938899	-22.175658	-7.278451
8.200000	4.751003	-29.093617	100.114568	0.079096	0.874813	0.047290	69.281810	1.514458	17.190315	86.888155	1.516484	34.892288	-17.608437	0.000000	64.231540	1.200676	-7.462418	74.618160	1.302333	54.016252	4.057539	0.000000	-0.527074	0.638745	-8.581068	-0.978830	0.849530	-9.117384	-0.865930	1.553044	-9.117384	-0.602393	1.553044	-7.508434	-0.489441	1.302528	-6.972117	-0.301170	0.989415	-6.435801	-3.764839	7.225607	-47.725324	0.000000	0.000000	3.346397	-15.263500	16.361230	11.031175	-25.736016	4.622344	86.980806	86.832028	11.234677	-4.121811	28.843319	15.474297	43.848122	58.133973	87.957762	-22.784968	-7.426867
8.218182	2.896142	-28.801535	97.997228	0.080317	0.874550	0.046521	69.132509	1.985537	19.213958	87.398993	1.525400	34.455669	-17.404344	0.000000	63.363463	0.693002	-9.906688	74.561817	1.301349	53.812843	4.104320	0.000000	-0.519638	0.432086	-8.409915	-0.965021	0.574675	-8.935535	-0.853714	1.050575	-8.935535	-0.593895	1.050575	-7.358676	-0.482536	0.881110	-6.833056	-0.296921	0.669302	-6.307437	-3.711726	4.887846	-46.773426	0.000000	0.000000	3.610104	-14.731248	15.984994	10.811934	-24.542694	3.672843	86.840623	87.458411	13.095733	-2.932986	28.444007	14.974367	43.774307	58.878577	87.871437	-23.249834	-7.503708
8.236364	0.899808	-28.495079	95.817945	0.081856	0.874507	0.045496	68.933128	2.421519	21.349371	87.860246	1.533451	34.126688	-17.232199	0.000000	62.393867	0.242972	-12.474025	74.401617	1.298553	53.657971	4.214766	0.000000	-0.510085	0.203070	-8.204889	-0.947278	0.270084	-8.717695	-0.838018	0.493746	-8.717695	-0.582976	0.493746	-7.179278	-0.473665	0.414101	-6.666472	-0.291462	0.314556	-6.153667	-3.643484	2.297174	-45.633132	0.000000	0.000000	4.146855	-13.921619	15.555990	10.332246	-23.229403	2.247418	86.666616	89.285630	14.799523	-2.035535	27.953925	14.567905	43.744507	59.489614	87.576791	-23.460456	-7.588550
8.254545	-1.195692	-28.182098	93.620122	0.083652	0.874646	0.044174	68.683075	2.817863	23.558081	88.266589	1.540543	33.910136	-17.101047	0.000000	61.354430	-0.146481	-15.116444	74.151666	1.294191	53.578839	4.439423	0.000000	-0.500012	-0.041664	-7.971935	-0.928572	-0.055413	-8.470181	-0.821469	-0.101301	-8.470181	-0.571464	-0.101301	-6.975443	-0.464311	-0.084961	-6.477197	-0.285707	-0.064537	-5.978951	-3.571534	-0.471310	-44.337509	0.000000	0.000000	4.956481	-12.819510	15.207668	9.588687	-21.881142	0.613592	86.524425	91.199608	15.799280	-1.573353	27.387548	14.268905	43.749791	59.964712	87.230391	-23.429096	-7.741881
8.272727	-3.272158	-27.871722	91.521927	0.085530	0.874871	0.042627	68.402413	3.145158	25.717731	88.601518	1.546388	33.831721	-17.017733	0.000000	60.317271	-0.451080	-17.701456	73.848667	1.288902	53.594173	4.797765	0.000000	-0.489763	-0.286912	-7.722574	-0.909540	-0.381592	-8.205235	-0.804632	-0.697597	-8.205235	-0.559751	-0.697597	-6.757252	-0.454794	-0.585070	-6.274591	-0.279851	-0.444426	-5.791930	-3.498331	-3.245600	-42.950639	0.000000	0.000000	6.008041	-11.493300	15.048347	8.638392	-20.559424	-1.128522	86.514522	92.141815	16.190660	-1.529544	26.841660	14.112097	43.844569	60.261031	86.970819	-23.186456	-7.923576
8.290909	-5.340995	-27.551128	89.505151	0.087504	0.875175	0.040878	68.079517	3.410176	27.847520	88.872988	1.551126	33.897509	-16.979387	0.000000	59.271085	-0.678196	-20.245798	73.497583	1.282775	53.718873	5.316063	0.000000	-0.480088	-0.533639	-7.461477	-0.891571	-0.709740	-7.927819	-0.788736	-1.297490	-7.927819	-0.548692	-1.297490	-6.528792	-0.445810	-1.088197	-6.062450	-0.274322	-0.826607	-5.596108	-3.429219	-6.036634	-41.498496	0.000000	0.000000	7.162605	-9.963458	15.205827	7.562191	-19.246708	-2.870757	86.633847	91.497950	16.251169	-1.906876	26.406101	14.051449	44.127136	60.359572	86.807265	-22.765009	-8.100840
8.309091	-7.207636	-27.240841	87.739562	0.089290	0.875445	0.039044	67.753417	3.592013	29.764119	89.054094	1.554287	34.109977	-16.989184	0.000000	58.311664	-0.812209	-22.546713	73.139805	1.276530	53.926823	5.940280	0.000000	-0.469078	-0.756770	-7.210355	-0.871126	-1.006503	-7.661003	-0.770649	-1.840009	-7.661003	-0.536110	-1.840009	-6.309061	-0.435586	-1.543204	-5.858414	-0.268031	-1.172236	-5.407767	-3.350581	-8.560728	-40.101834	0.000000	0.000000	8.348941	-8.399309	15.731703	6.520783	-18.024951	-4.567891	86.832525	89.376686	16.122813	-2.715500	26.181083	14.153163	44.585448	60.154591	86.740394	-22.317286	-8.337331
